<svg xmlns="http://www.w3.org/2000/svg" version="1.1" xmlns:xlink="http://www.w3.org/1999/xlink" xmlns:svgjs="http://svgjs.dev/svgjs" width="1440" height="560" preserveAspectRatio="none" viewBox="0 0 1440 560"><g mask="url(&quot;#SvgjsMask1004&quot;)" fill="none"><rect width="1440" height="560" x="0" y="0" fill="#0e2a47"></rect><path d="M-108.77 372.74L-108.77 372.74" stroke="#132e65" stroke-width="1.5"></path><path d="M-108.77 372.74L-57.55 524.5" stroke="#132e65" stroke-width="1.5"></path><path d="M-108.77 372.74L93.11 374.98" stroke="#132e65" stroke-width="1.5"></path><path d="M-57.55 524.5L-57.55 524.5" stroke="#132e65" stroke-width="1.5"></path><path d="M-57.55 524.5L61.79 516.69" stroke="#132e65" stroke-width="1.5"></path><path d="M-57.55 524.5L-39.03 654.09" stroke="#132e65" stroke-width="1.5"></path><path d="M-57.55 524.5L93.11 374.98" stroke="#132e65" stroke-width="1.5"></path><path d="M-39.03 654.09L-39.03 654.09" stroke="#132e65" stroke-width="1.5"></path><path d="M-39.03 654.09L78.92 688.59" stroke="#132e65" stroke-width="1.5"></path><path d="M-39.03 654.09L61.79 516.69" stroke="#132e65" stroke-width="1.5"></path><path d="M93.11 374.98L93.11 374.98" stroke="#132e65" stroke-width="1.5"></path><path d="M93.11 374.98L191.32 358.74" stroke="#132e65" stroke-width="1.5"></path><path d="M93.11 374.98L61.79 516.69" stroke="#132e65" stroke-width="1.5"></path><path d="M61.79 516.69L61.79 516.69" stroke="#132e65" stroke-width="1.5"></path><path d="M61.79 516.69L78.92 688.59" stroke="#132e65" stroke-width="1.5"></path><path d="M61.79 516.69L262.16 553.83" stroke="#132e65" stroke-width="1.5"></path><path d="M61.79 516.69L191.32 358.74" stroke="#132e65" stroke-width="1.5"></path><path d="M78.92 688.59L78.92 688.59" stroke="#132e65" stroke-width="1.5"></path><path d="M78.92 688.59L215.49 674.82" stroke="#132e65" stroke-width="1.5"></path><path d="M78.92 688.59L-57.55 524.5" stroke="#132e65" stroke-width="1.5"></path><path d="M78.92 688.59L262.16 553.83" stroke="#132e65" stroke-width="1.5"></path><path d="M191.32 358.74L191.32 358.74" stroke="#132e65" stroke-width="1.5"></path><path d="M191.32 358.74L360.63 372.15" stroke="#132e65" stroke-width="1.5"></path><path d="M262.16 553.83L262.16 553.83" stroke="#132e65" stroke-width="1.5"></path><path d="M262.16 553.83L350.49 490.3" stroke="#132e65" stroke-width="1.5"></path><path d="M262.16 553.83L215.49 674.82" stroke="#132e65" stroke-width="1.5"></path><path d="M262.16 553.83L361.64 696.13" stroke="#132e65" stroke-width="1.5"></path><path d="M262.16 553.83L360.63 372.15" stroke="#132e65" stroke-width="1.5"></path><path d="M215.49 674.82L215.49 674.82" stroke="#132e65" stroke-width="1.5"></path><path d="M215.49 674.82L361.64 696.13" stroke="#132e65" stroke-width="1.5"></path><path d="M215.49 674.82L61.79 516.69" stroke="#132e65" stroke-width="1.5"></path><path d="M215.49 674.82L350.49 490.3" stroke="#132e65" stroke-width="1.5"></path><path d="M360.63 372.15L360.63 372.15" stroke="#132e65" stroke-width="1.5"></path><path d="M360.63 372.15L350.49 490.3" stroke="#132e65" stroke-width="1.5"></path><path d="M360.63 372.15L529.49 394.18" stroke="#132e65" stroke-width="1.5"></path><path d="M360.63 372.15L536.28 561.35" stroke="#132e65" stroke-width="1.5"></path><path d="M360.63 372.15L93.11 374.98" stroke="#132e65" stroke-width="1.5"></path><path d="M350.49 490.3L350.49 490.3" stroke="#132e65" stroke-width="1.5"></path><path d="M350.49 490.3L536.28 561.35" stroke="#132e65" stroke-width="1.5"></path><path d="M350.49 490.3L529.49 394.18" stroke="#132e65" stroke-width="1.5"></path><path d="M350.49 490.3L361.64 696.13" stroke="#132e65" stroke-width="1.5"></path><path d="M361.64 696.13L361.64 696.13" stroke="#132e65" stroke-width="1.5"></path><path d="M361.64 696.13L532.01 700.78" stroke="#132e65" stroke-width="1.5"></path><path d="M529.49 394.18L529.49 394.18" stroke="#132e65" stroke-width="1.5"></path><path d="M529.49 394.18L640.95 396.27" stroke="#132e65" stroke-width="1.5"></path><path d="M529.49 394.18L536.28 561.35" stroke="#132e65" stroke-width="1.5"></path><path d="M536.28 561.35L536.28 561.35" stroke="#132e65" stroke-width="1.5"></path><path d="M536.28 561.35L652.12 512.5" stroke="#132e65" stroke-width="1.5"></path><path d="M536.28 561.35L532.01 700.78" stroke="#132e65" stroke-width="1.5"></path><path d="M532.01 700.78L532.01 700.78" stroke="#132e65" stroke-width="1.5"></path><path d="M532.01 700.78L652.12 512.5" stroke="#132e65" stroke-width="1.5"></path><path d="M640.95 396.27L640.95 396.27" stroke="#132e65" stroke-width="1.5"></path><path d="M640.95 396.27L652.12 512.5" stroke="#132e65" stroke-width="1.5"></path><path d="M640.95 396.27L536.28 561.35" stroke="#132e65" stroke-width="1.5"></path><path d="M652.12 512.5L652.12 512.5" stroke="#132e65" stroke-width="1.5"></path><path d="M789.86 201.6L789.86 201.6" stroke="#132e65" stroke-width="1.5"></path><path d="M789.86 201.6L856.85 354.19" stroke="#132e65" stroke-width="1.5"></path><path d="M789.86 201.6L971.82 260.57" stroke="#132e65" stroke-width="1.5"></path><path d="M789.86 201.6L962.91 42.7" stroke="#132e65" stroke-width="1.5"></path><path d="M856.85 354.19L856.85 354.19" stroke="#132e65" stroke-width="1.5"></path><path d="M856.85 354.19L938.15 384.23" stroke="#132e65" stroke-width="1.5"></path><path d="M856.85 354.19L971.82 260.57" stroke="#132e65" stroke-width="1.5"></path><path d="M856.85 354.19L813.75 498.24" stroke="#132e65" stroke-width="1.5"></path><path d="M856.85 354.19L945.11 517.86" stroke="#132e65" stroke-width="1.5"></path><path d="M856.85 354.19L640.95 396.27" stroke="#132e65" stroke-width="1.5"></path><path d="M813.75 498.24L813.75 498.24" stroke="#132e65" stroke-width="1.5"></path><path d="M813.75 498.24L945.11 517.86" stroke="#132e65" stroke-width="1.5"></path><path d="M813.75 498.24L652.12 512.5" stroke="#132e65" stroke-width="1.5"></path><path d="M813.75 498.24L938.15 384.23" stroke="#132e65" stroke-width="1.5"></path><path d="M813.75 498.24L836.71 693.03" stroke="#132e65" stroke-width="1.5"></path><path d="M836.71 693.03L836.71 693.03" stroke="#132e65" stroke-width="1.5"></path><path d="M836.71 693.03L952.43 658.84" stroke="#132e65" stroke-width="1.5"></path><path d="M971.09 -54.1L971.09 -54.1" stroke="#132e65" stroke-width="1.5"></path><path d="M971.09 -54.1L962.91 42.7" stroke="#132e65" stroke-width="1.5"></path><path d="M971.09 -54.1L1132.62 -40.65" stroke="#132e65" stroke-width="1.5"></path><path d="M971.09 -54.1L1149.87 70" stroke="#132e65" stroke-width="1.5"></path><path d="M962.91 42.7L962.91 42.7" stroke="#132e65" stroke-width="1.5"></path><path d="M962.91 42.7L1149.87 70" stroke="#132e65" stroke-width="1.5"></path><path d="M971.82 260.57L971.82 260.57" stroke="#132e65" stroke-width="1.5"></path><path d="M971.82 260.57L938.15 384.23" stroke="#132e65" stroke-width="1.5"></path><path d="M938.15 384.23L938.15 384.23" stroke="#132e65" stroke-width="1.5"></path><path d="M938.15 384.23L945.11 517.86" stroke="#132e65" stroke-width="1.5"></path><path d="M938.15 384.23L1143.91 348.16" stroke="#132e65" stroke-width="1.5"></path><path d="M945.11 517.86L945.11 517.86" stroke="#132e65" stroke-width="1.5"></path><path d="M945.11 517.86L952.43 658.84" stroke="#132e65" stroke-width="1.5"></path><path d="M945.11 517.86L1090 648.46" stroke="#132e65" stroke-width="1.5"></path><path d="M945.11 517.86L1145.8 499.91" stroke="#132e65" stroke-width="1.5"></path><path d="M952.43 658.84L952.43 658.84" stroke="#132e65" stroke-width="1.5"></path><path d="M952.43 658.84L1090 648.46" stroke="#132e65" stroke-width="1.5"></path><path d="M952.43 658.84L813.75 498.24" stroke="#132e65" stroke-width="1.5"></path><path d="M1132.62 -40.65L1132.62 -40.65" stroke="#132e65" stroke-width="1.5"></path><path d="M1132.62 -40.65L1149.87 70" stroke="#132e65" stroke-width="1.5"></path><path d="M1132.62 -40.65L1256.36 -89.09" stroke="#132e65" stroke-width="1.5"></path><path d="M1132.62 -40.65L1279.51 39.94" stroke="#132e65" stroke-width="1.5"></path><path d="M1132.62 -40.65L962.91 42.7" stroke="#132e65" stroke-width="1.5"></path><path d="M1132.62 -40.65L1141.27 194.73" stroke="#132e65" stroke-width="1.5"></path><path d="M1149.87 70L1149.87 70" stroke="#132e65" stroke-width="1.5"></path><path d="M1149.87 70L1141.27 194.73" stroke="#132e65" stroke-width="1.5"></path><path d="M1149.87 70L1279.51 39.94" stroke="#132e65" stroke-width="1.5"></path><path d="M1149.87 70L1253.03 192.11" stroke="#132e65" stroke-width="1.5"></path><path d="M1141.27 194.73L1141.27 194.73" stroke="#132e65" stroke-width="1.5"></path><path d="M1141.27 194.73L1253.03 192.11" stroke="#132e65" stroke-width="1.5"></path><path d="M1141.27 194.73L1143.91 348.16" stroke="#132e65" stroke-width="1.5"></path><path d="M1141.27 194.73L971.82 260.57" stroke="#132e65" stroke-width="1.5"></path><path d="M1141.27 194.73L1279.51 39.94" stroke="#132e65" stroke-width="1.5"></path><path d="M1143.91 348.16L1143.91 348.16" stroke="#132e65" stroke-width="1.5"></path><path d="M1143.91 348.16L1260.81 373.83" stroke="#132e65" stroke-width="1.5"></path><path d="M1143.91 348.16L1145.8 499.91" stroke="#132e65" stroke-width="1.5"></path><path d="M1145.8 499.91L1145.8 499.91" stroke="#132e65" stroke-width="1.5"></path><path d="M1145.8 499.91L1090 648.46" stroke="#132e65" stroke-width="1.5"></path><path d="M1145.8 499.91L1304.8 526.86" stroke="#132e65" stroke-width="1.5"></path><path d="M1145.8 499.91L1260.81 373.83" stroke="#132e65" stroke-width="1.5"></path><path d="M1145.8 499.91L1269.71 646.33" stroke="#132e65" stroke-width="1.5"></path><path d="M1090 648.46L1090 648.46" stroke="#132e65" stroke-width="1.5"></path><path d="M1090 648.46L1269.71 646.33" stroke="#132e65" stroke-width="1.5"></path><path d="M1256.36 -89.09L1256.36 -89.09" stroke="#132e65" stroke-width="1.5"></path><path d="M1256.36 -89.09L1279.51 39.94" stroke="#132e65" stroke-width="1.5"></path><path d="M1256.36 -89.09L1438.05 -108.66" stroke="#132e65" stroke-width="1.5"></path><path d="M1256.36 -89.09L1149.87 70" stroke="#132e65" stroke-width="1.5"></path><path d="M1279.51 39.94L1279.51 39.94" stroke="#132e65" stroke-width="1.5"></path><path d="M1279.51 39.94L1409.14 54.56" stroke="#132e65" stroke-width="1.5"></path><path d="M1279.51 39.94L1253.03 192.11" stroke="#132e65" stroke-width="1.5"></path><path d="M1253.03 192.11L1253.03 192.11" stroke="#132e65" stroke-width="1.5"></path><path d="M1253.03 192.11L1394.7 191.91" stroke="#132e65" stroke-width="1.5"></path><path d="M1253.03 192.11L1260.81 373.83" stroke="#132e65" stroke-width="1.5"></path><path d="M1253.03 192.11L1143.91 348.16" stroke="#132e65" stroke-width="1.5"></path><path d="M1260.81 373.83L1260.81 373.83" stroke="#132e65" stroke-width="1.5"></path><path d="M1260.81 373.83L1412.61 361.56" stroke="#132e65" stroke-width="1.5"></path><path d="M1260.81 373.83L1304.8 526.86" stroke="#132e65" stroke-width="1.5"></path><path d="M1304.8 526.86L1304.8 526.86" stroke="#132e65" stroke-width="1.5"></path><path d="M1304.8 526.86L1397.57 506.54" stroke="#132e65" stroke-width="1.5"></path><path d="M1304.8 526.86L1269.71 646.33" stroke="#132e65" stroke-width="1.5"></path><path d="M1304.8 526.86L1391.57 679.91" stroke="#132e65" stroke-width="1.5"></path><path d="M1304.8 526.86L1412.61 361.56" stroke="#132e65" stroke-width="1.5"></path><path d="M1269.71 646.33L1269.71 646.33" stroke="#132e65" stroke-width="1.5"></path><path d="M1269.71 646.33L1391.57 679.91" stroke="#132e65" stroke-width="1.5"></path><path d="M1269.71 646.33L1397.57 506.54" stroke="#132e65" stroke-width="1.5"></path><path d="M1438.05 -108.66L1438.05 -108.66" stroke="#132e65" stroke-width="1.5"></path><path d="M1438.05 -108.66L1584.87 -73.73" stroke="#132e65" stroke-width="1.5"></path><path d="M1438.05 -108.66L1409.14 54.56" stroke="#132e65" stroke-width="1.5"></path><path d="M1438.05 -108.66L1279.51 39.94" stroke="#132e65" stroke-width="1.5"></path><path d="M1438.05 -108.66L1543.14 102.28" stroke="#132e65" stroke-width="1.5"></path><path d="M1409.14 54.56L1409.14 54.56" stroke="#132e65" stroke-width="1.5"></path><path d="M1409.14 54.56L1394.7 191.91" stroke="#132e65" stroke-width="1.5"></path><path d="M1409.14 54.56L1543.14 102.28" stroke="#132e65" stroke-width="1.5"></path><path d="M1409.14 54.56L1253.03 192.11" stroke="#132e65" stroke-width="1.5"></path><path d="M1394.7 191.91L1394.7 191.91" stroke="#132e65" stroke-width="1.5"></path><path d="M1394.7 191.91L1412.61 361.56" stroke="#132e65" stroke-width="1.5"></path><path d="M1394.7 191.91L1543.14 102.28" stroke="#132e65" stroke-width="1.5"></path><path d="M1394.7 191.91L1279.51 39.94" stroke="#132e65" stroke-width="1.5"></path><path d="M1394.7 191.91L1260.81 373.83" stroke="#132e65" stroke-width="1.5"></path><path d="M1412.61 361.56L1412.61 361.56" stroke="#132e65" stroke-width="1.5"></path><path d="M1412.61 361.56L1540.99 380.38" stroke="#132e65" stroke-width="1.5"></path><path d="M1412.61 361.56L1397.57 506.54" stroke="#132e65" stroke-width="1.5"></path><path d="M1397.57 506.54L1397.57 506.54" stroke="#132e65" stroke-width="1.5"></path><path d="M1397.57 506.54L1391.57 679.91" stroke="#132e65" stroke-width="1.5"></path><path d="M1397.57 506.54L1577.93 527.03" stroke="#132e65" stroke-width="1.5"></path><path d="M1391.57 679.91L1391.57 679.91" stroke="#132e65" stroke-width="1.5"></path><path d="M1584.87 -73.73L1584.87 -73.73" stroke="#132e65" stroke-width="1.5"></path><path d="M1584.87 -73.73L1543.14 102.28" stroke="#132e65" stroke-width="1.5"></path><path d="M1584.87 -73.73L1409.14 54.56" stroke="#132e65" stroke-width="1.5"></path><path d="M1584.87 -73.73L1279.51 39.94" stroke="#132e65" stroke-width="1.5"></path><path d="M1584.87 -73.73L1394.7 191.91" stroke="#132e65" stroke-width="1.5"></path><path d="M1543.14 102.28L1543.14 102.28" stroke="#132e65" stroke-width="1.5"></path><path d="M1540.99 380.38L1540.99 380.38" stroke="#132e65" stroke-width="1.5"></path><path d="M1540.99 380.38L1577.93 527.03" stroke="#132e65" stroke-width="1.5"></path><path d="M1540.99 380.38L1397.57 506.54" stroke="#132e65" stroke-width="1.5"></path><path d="M1540.99 380.38L1394.7 191.91" stroke="#132e65" stroke-width="1.5"></path><path d="M1540.99 380.38L1304.8 526.86" stroke="#132e65" stroke-width="1.5"></path><path d="M1577.93 527.03L1577.93 527.03" stroke="#132e65" stroke-width="1.5"></path><path d="M1577.93 527.03L1593.73 705.67" stroke="#132e65" stroke-width="1.5"></path><path d="M1593.73 705.67L1593.73 705.67" stroke="#132e65" stroke-width="1.5"></path><path d="M1593.73 705.67L1391.57 679.91" stroke="#132e65" stroke-width="1.5"></path><path d="M1593.73 705.67L1397.57 506.54" stroke="#132e65" stroke-width="1.5"></path><circle r="5" cx="-108.77" cy="372.74" fill="#132e65"></circle><circle r="5" cx="-57.55" cy="524.5" fill="#132e65"></circle><circle r="5" cx="-39.03" cy="654.09" fill="#132e65"></circle><circle r="5" cx="93.11" cy="374.98" fill="#132e65"></circle><circle r="5" cx="61.79" cy="516.69" fill="#132e65"></circle><circle r="5" cx="78.92" cy="688.59" fill="#132e65"></circle><circle r="5" cx="191.32" cy="358.74" fill="#132e65"></circle><circle r="5" cx="262.16" cy="553.83" fill="#132e65"></circle><circle r="5" cx="215.49" cy="674.82" fill="#132e65"></circle><circle r="5" cx="360.63" cy="372.15" fill="#132e65"></circle><circle r="5" cx="350.49" cy="490.3" fill="#132e65"></circle><circle r="5" cx="361.64" cy="696.13" fill="#132e65"></circle><circle r="5" cx="529.49" cy="394.18" fill="#132e65"></circle><circle r="5" cx="536.28" cy="561.35" fill="#132e65"></circle><circle r="5" cx="532.01" cy="700.78" fill="#132e65"></circle><circle r="5" cx="640.95" cy="396.27" fill="#132e65"></circle><circle r="5" cx="652.12" cy="512.5" fill="#132e65"></circle><circle r="5" cx="789.86" cy="201.6" fill="#132e65"></circle><circle r="5" cx="856.85" cy="354.19" fill="#132e65"></circle><circle r="5" cx="813.75" cy="498.24" fill="#132e65"></circle><circle r="5" cx="836.71" cy="693.03" fill="#132e65"></circle><circle r="5" cx="971.09" cy="-54.1" fill="#132e65"></circle><circle r="5" cx="962.91" cy="42.7" fill="#132e65"></circle><circle r="5" cx="971.82" cy="260.57" fill="#132e65"></circle><circle r="5" cx="938.15" cy="384.23" fill="#132e65"></circle><circle r="5" cx="945.11" cy="517.86" fill="#132e65"></circle><circle r="5" cx="952.43" cy="658.84" fill="#132e65"></circle><circle r="5" cx="1132.62" cy="-40.65" fill="#132e65"></circle><circle r="5" cx="1149.87" cy="70" fill="#132e65"></circle><circle r="5" cx="1141.27" cy="194.73" fill="#132e65"></circle><circle r="5" cx="1143.91" cy="348.16" fill="#132e65"></circle><circle r="5" cx="1145.8" cy="499.91" fill="#132e65"></circle><circle r="5" cx="1090" cy="648.46" fill="#132e65"></circle><circle r="5" cx="1256.36" cy="-89.09" fill="#132e65"></circle><circle r="5" cx="1279.51" cy="39.94" fill="#132e65"></circle><circle r="5" cx="1253.03" cy="192.11" fill="#132e65"></circle><circle r="5" cx="1260.81" cy="373.83" fill="#132e65"></circle><circle r="5" cx="1304.8" cy="526.86" fill="#132e65"></circle><circle r="5" cx="1269.71" cy="646.33" fill="#132e65"></circle><circle r="5" cx="1438.05" cy="-108.66" fill="#132e65"></circle><circle r="5" cx="1409.14" cy="54.56" fill="#132e65"></circle><circle r="5" cx="1394.7" cy="191.91" fill="#132e65"></circle><circle r="5" cx="1412.61" cy="361.56" fill="#132e65"></circle><circle r="5" cx="1397.57" cy="506.54" fill="#132e65"></circle><circle r="5" cx="1391.57" cy="679.91" fill="#132e65"></circle><circle r="5" cx="1584.87" cy="-73.73" fill="#132e65"></circle><circle r="5" cx="1543.14" cy="102.28" fill="#132e65"></circle><circle r="5" cx="1540.99" cy="380.38" fill="#132e65"></circle><circle r="5" cx="1577.93" cy="527.03" fill="#132e65"></circle><circle r="5" cx="1593.73" cy="705.67" fill="#132e65"></circle><path d="M238.39 705.67L238.39 705.67" stroke="hsl(228.5, 77.2%, 51.5%)" stroke-width="1.5"></path><path d="M238.39 705.67L357.71 711.57" stroke="hsl(228.5, 77.2%, 51.5%)" stroke-width="1.5"></path><path d="M238.39 705.67L189.05 562.29" stroke="hsl(228.5, 77.2%, 51.5%)" stroke-width="1.5"></path><path d="M238.39 705.67L49.1 662.52" stroke="hsl(228.5, 77.2%, 51.5%)" stroke-width="1.5"></path><path d="M238.39 705.67L339.69 526.47" stroke="hsl(228.5, 77.2%, 51.5%)" stroke-width="1.5"></path><path d="M670.1 377.87L670.1 377.87" stroke="hsl(228.5, 77.2%, 51.5%)" stroke-width="1.5"></path><path d="M670.1 377.87L545.44 411.9" stroke="hsl(228.5, 77.2%, 51.5%)" stroke-width="1.5"></path><path d="M670.1 377.87L704.95 553.11" stroke="hsl(228.5, 77.2%, 51.5%)" stroke-width="1.5"></path><path d="M704.95 553.11L704.95 553.11" stroke="hsl(228.5, 77.2%, 51.5%)" stroke-width="1.5"></path><path d="M704.95 553.11L808.13 559.14" stroke="hsl(228.5, 77.2%, 51.5%)" stroke-width="1.5"></path><path d="M704.95 553.11L703.43 670.34" stroke="hsl(228.5, 77.2%, 51.5%)" stroke-width="1.5"></path><path d="M704.95 553.11L561.29 556.79" stroke="hsl(228.5, 77.2%, 51.5%)" stroke-width="1.5"></path><path d="M704.95 553.11L528.74 655.17" stroke="hsl(228.5, 77.2%, 51.5%)" stroke-width="1.5"></path><path d="M704.95 553.11L846.32 707.05" stroke="hsl(228.5, 77.2%, 51.5%)" stroke-width="1.5"></path><path d="M808.13 559.14L808.13 559.14" stroke="hsl(228.5, 77.2%, 51.5%)" stroke-width="1.5"></path><path d="M808.13 559.14L703.43 670.34" stroke="hsl(228.5, 77.2%, 51.5%)" stroke-width="1.5"></path><path d="M808.13 559.14L846.32 707.05" stroke="hsl(228.5, 77.2%, 51.5%)" stroke-width="1.5"></path><path d="M808.13 559.14L973.53 506.1" stroke="hsl(228.5, 77.2%, 51.5%)" stroke-width="1.5"></path><path d="M808.13 559.14L670.1 377.87" stroke="hsl(228.5, 77.2%, 51.5%)" stroke-width="1.5"></path><path d="M808.13 559.14L956.65 384.25" stroke="hsl(228.5, 77.2%, 51.5%)" stroke-width="1.5"></path><path d="M1158.7 499.53L1158.7 499.53" stroke="hsl(228.5, 77.2%, 51.5%)" stroke-width="1.5"></path><path d="M1158.7 499.53L1268.8 501.83" stroke="hsl(228.5, 77.2%, 51.5%)" stroke-width="1.5"></path><path d="M1158.7 499.53L1156.46 338.56" stroke="hsl(228.5, 77.2%, 51.5%)" stroke-width="1.5"></path><path d="M1108.71 668.71L1108.71 668.71" stroke="hsl(228.5, 77.2%, 51.5%)" stroke-width="1.5"></path><path d="M1108.71 668.71L1158.7 499.53" stroke="hsl(228.5, 77.2%, 51.5%)" stroke-width="1.5"></path><path d="M1108.71 668.71L1304.51 639.48" stroke="hsl(228.5, 77.2%, 51.5%)" stroke-width="1.5"></path><path d="M1244.6 -89.3L1244.6 -89.3" stroke="hsl(228.5, 77.2%, 51.5%)" stroke-width="1.5"></path><path d="M1244.6 -89.3L1298.79 42.32" stroke="hsl(228.5, 77.2%, 51.5%)" stroke-width="1.5"></path><path d="M1244.6 -89.3L1392.43 -51.59" stroke="hsl(228.5, 77.2%, 51.5%)" stroke-width="1.5"></path><path d="M1244.6 -89.3L1157.17 91.28" stroke="hsl(228.5, 77.2%, 51.5%)" stroke-width="1.5"></path><path d="M1244.6 -89.3L1449.94 42.97" stroke="hsl(228.5, 77.2%, 51.5%)" stroke-width="1.5"></path><path d="M1244.6 -89.3L1293.26 204.66" stroke="hsl(228.5, 77.2%, 51.5%)" stroke-width="1.5"></path><path d="M1244.6 -89.3L1388.62 187.61" stroke="hsl(228.5, 77.2%, 51.5%)" stroke-width="1.5"></path><path d="M1298.79 42.32L1298.79 42.32" stroke="hsl(228.5, 77.2%, 51.5%)" stroke-width="1.5"></path><path d="M1298.79 42.32L1392.43 -51.59" stroke="hsl(228.5, 77.2%, 51.5%)" stroke-width="1.5"></path><path d="M1449.94 42.97L1449.94 42.97" stroke="hsl(228.5, 77.2%, 51.5%)" stroke-width="1.5"></path><path d="M1449.94 42.97L1392.43 -51.59" stroke="hsl(228.5, 77.2%, 51.5%)" stroke-width="1.5"></path><path d="M1449.94 42.97L1298.79 42.32" stroke="hsl(228.5, 77.2%, 51.5%)" stroke-width="1.5"></path><path d="M1388.62 187.61L1388.62 187.61" stroke="hsl(228.5, 77.2%, 51.5%)" stroke-width="1.5"></path><path d="M1388.62 187.61L1293.26 204.66" stroke="hsl(228.5, 77.2%, 51.5%)" stroke-width="1.5"></path><path d="M1388.62 187.61L1449.94 42.97" stroke="hsl(228.5, 77.2%, 51.5%)" stroke-width="1.5"></path><path d="M1388.62 187.61L1298.79 42.32" stroke="hsl(228.5, 77.2%, 51.5%)" stroke-width="1.5"></path><path d="M1582.73 260.17L1582.73 260.17" stroke="hsl(228.5, 77.2%, 51.5%)" stroke-width="1.5"></path><path d="M1582.73 260.17L1599.9 352.29" stroke="hsl(228.5, 77.2%, 51.5%)" stroke-width="1.5"></path><path d="M1582.73 260.17L1460.48 373.87" stroke="hsl(228.5, 77.2%, 51.5%)" stroke-width="1.5"></path><path d="M1582.73 260.17L1388.62 187.61" stroke="hsl(228.5, 77.2%, 51.5%)" stroke-width="1.5"></path><path d="M1582.73 260.17L1449.94 42.97" stroke="hsl(228.5, 77.2%, 51.5%)" stroke-width="1.5"></path><path d="M1586.55 540.97L1586.55 540.97" stroke="hsl(228.5, 77.2%, 51.5%)" stroke-width="1.5"></path><path d="M1586.55 540.97L1603.07 692.28" stroke="hsl(228.5, 77.2%, 51.5%)" stroke-width="1.5"></path><path d="M1586.55 540.97L1599.9 352.29" stroke="hsl(228.5, 77.2%, 51.5%)" stroke-width="1.5"></path><path d="M1586.55 540.97L1394.51 501.1" stroke="hsl(228.5, 77.2%, 51.5%)" stroke-width="1.5"></path><path d="M1586.55 540.97L1410.15 645.31" stroke="hsl(228.5, 77.2%, 51.5%)" stroke-width="1.5"></path><path d="M1586.55 540.97L1460.48 373.87" stroke="hsl(228.5, 77.2%, 51.5%)" stroke-width="1.5"></path><path d="M1586.55 540.97L1582.73 260.17" stroke="hsl(228.5, 77.2%, 51.5%)" stroke-width="1.5"></path><path d="M-83.29 522.94L-83.29 522.94" stroke="hsl(228.5, 77.2%, 51.5%)" stroke-width="1.5"></path><path d="M-83.29 522.94L98 510.22" stroke="hsl(228.5, 77.2%, 51.5%)" stroke-width="1.5"></path><path d="M-83.29 522.94L-91 706.42" stroke="hsl(228.5, 77.2%, 51.5%)" stroke-width="1.5"></path><path d="M-91 706.42L-91 706.42" stroke="hsl(228.5, 77.2%, 51.5%)" stroke-width="1.5"></path><path d="M-91 706.42L49.1 662.52" stroke="hsl(228.5, 77.2%, 51.5%)" stroke-width="1.5"></path><path d="M98 510.22L98 510.22" stroke="hsl(228.5, 77.2%, 51.5%)" stroke-width="1.5"></path><path d="M98 510.22L189.05 562.29" stroke="hsl(228.5, 77.2%, 51.5%)" stroke-width="1.5"></path><path d="M98 510.22L49.1 662.52" stroke="hsl(228.5, 77.2%, 51.5%)" stroke-width="1.5"></path><path d="M49.1 662.52L49.1 662.52" stroke="hsl(228.5, 77.2%, 51.5%)" stroke-width="1.5"></path><path d="M49.1 662.52L189.05 562.29" stroke="hsl(228.5, 77.2%, 51.5%)" stroke-width="1.5"></path><path d="M49.1 662.52L-83.29 522.94" stroke="hsl(228.5, 77.2%, 51.5%)" stroke-width="1.5"></path><path d="M189.05 562.29L189.05 562.29" stroke="hsl(228.5, 77.2%, 51.5%)" stroke-width="1.5"></path><path d="M189.05 562.29L339.69 526.47" stroke="hsl(228.5, 77.2%, 51.5%)" stroke-width="1.5"></path><path d="M189.05 562.29L357.71 711.57" stroke="hsl(228.5, 77.2%, 51.5%)" stroke-width="1.5"></path><path d="M189.05 562.29L-83.29 522.94" stroke="hsl(228.5, 77.2%, 51.5%)" stroke-width="1.5"></path><path d="M339.69 526.47L339.69 526.47" stroke="hsl(228.5, 77.2%, 51.5%)" stroke-width="1.5"></path><path d="M339.69 526.47L357.71 711.57" stroke="hsl(228.5, 77.2%, 51.5%)" stroke-width="1.5"></path><path d="M357.71 711.57L357.71 711.57" stroke="hsl(228.5, 77.2%, 51.5%)" stroke-width="1.5"></path><path d="M357.71 711.57L528.74 655.17" stroke="hsl(228.5, 77.2%, 51.5%)" stroke-width="1.5"></path><path d="M545.44 411.9L545.44 411.9" stroke="hsl(228.5, 77.2%, 51.5%)" stroke-width="1.5"></path><path d="M545.44 411.9L561.29 556.79" stroke="hsl(228.5, 77.2%, 51.5%)" stroke-width="1.5"></path><path d="M545.44 411.9L704.95 553.11" stroke="hsl(228.5, 77.2%, 51.5%)" stroke-width="1.5"></path><path d="M561.29 556.79L561.29 556.79" stroke="hsl(228.5, 77.2%, 51.5%)" stroke-width="1.5"></path><path d="M561.29 556.79L528.74 655.17" stroke="hsl(228.5, 77.2%, 51.5%)" stroke-width="1.5"></path><path d="M561.29 556.79L703.43 670.34" stroke="hsl(228.5, 77.2%, 51.5%)" stroke-width="1.5"></path><path d="M528.74 655.17L528.74 655.17" stroke="hsl(228.5, 77.2%, 51.5%)" stroke-width="1.5"></path><path d="M528.74 655.17L703.43 670.34" stroke="hsl(228.5, 77.2%, 51.5%)" stroke-width="1.5"></path><path d="M703.43 670.34L703.43 670.34" stroke="hsl(228.5, 77.2%, 51.5%)" stroke-width="1.5"></path><path d="M703.43 670.34L846.32 707.05" stroke="hsl(228.5, 77.2%, 51.5%)" stroke-width="1.5"></path><path d="M846.32 707.05L846.32 707.05" stroke="hsl(228.5, 77.2%, 51.5%)" stroke-width="1.5"></path><path d="M846.32 707.05L973.53 506.1" stroke="hsl(228.5, 77.2%, 51.5%)" stroke-width="1.5"></path><path d="M846.32 707.05L1108.71 668.71" stroke="hsl(228.5, 77.2%, 51.5%)" stroke-width="1.5"></path><path d="M846.32 707.05L528.74 655.17" stroke="hsl(228.5, 77.2%, 51.5%)" stroke-width="1.5"></path><path d="M956.65 384.25L956.65 384.25" stroke="hsl(228.5, 77.2%, 51.5%)" stroke-width="1.5"></path><path d="M956.65 384.25L973.53 506.1" stroke="hsl(228.5, 77.2%, 51.5%)" stroke-width="1.5"></path><path d="M956.65 384.25L1156.46 338.56" stroke="hsl(228.5, 77.2%, 51.5%)" stroke-width="1.5"></path><path d="M956.65 384.25L1158.7 499.53" stroke="hsl(228.5, 77.2%, 51.5%)" stroke-width="1.5"></path><path d="M956.65 384.25L1147.4 235.14" stroke="hsl(228.5, 77.2%, 51.5%)" stroke-width="1.5"></path><path d="M973.53 506.1L973.53 506.1" stroke="hsl(228.5, 77.2%, 51.5%)" stroke-width="1.5"></path><path d="M973.53 506.1L1158.7 499.53" stroke="hsl(228.5, 77.2%, 51.5%)" stroke-width="1.5"></path><path d="M1157.17 91.28L1157.17 91.28" stroke="hsl(228.5, 77.2%, 51.5%)" stroke-width="1.5"></path><path d="M1157.17 91.28L1147.4 235.14" stroke="hsl(228.5, 77.2%, 51.5%)" stroke-width="1.5"></path><path d="M1157.17 91.28L1298.79 42.32" stroke="hsl(228.5, 77.2%, 51.5%)" stroke-width="1.5"></path><path d="M1157.17 91.28L1293.26 204.66" stroke="hsl(228.5, 77.2%, 51.5%)" stroke-width="1.5"></path><path d="M1157.17 91.28L1156.46 338.56" stroke="hsl(228.5, 77.2%, 51.5%)" stroke-width="1.5"></path><path d="M1147.4 235.14L1147.4 235.14" stroke="hsl(228.5, 77.2%, 51.5%)" stroke-width="1.5"></path><path d="M1147.4 235.14L1156.46 338.56" stroke="hsl(228.5, 77.2%, 51.5%)" stroke-width="1.5"></path><path d="M1156.46 338.56L1156.46 338.56" stroke="hsl(228.5, 77.2%, 51.5%)" stroke-width="1.5"></path><path d="M1293.26 204.66L1293.26 204.66" stroke="hsl(228.5, 77.2%, 51.5%)" stroke-width="1.5"></path><path d="M1293.26 204.66L1147.4 235.14" stroke="hsl(228.5, 77.2%, 51.5%)" stroke-width="1.5"></path><path d="M1293.26 204.66L1298.79 42.32" stroke="hsl(228.5, 77.2%, 51.5%)" stroke-width="1.5"></path><path d="M1293.26 204.66L1156.46 338.56" stroke="hsl(228.5, 77.2%, 51.5%)" stroke-width="1.5"></path><path d="M1293.26 204.66L1449.94 42.97" stroke="hsl(228.5, 77.2%, 51.5%)" stroke-width="1.5"></path><path d="M1268.8 501.83L1268.8 501.83" stroke="hsl(228.5, 77.2%, 51.5%)" stroke-width="1.5"></path><path d="M1268.8 501.83L1394.51 501.1" stroke="hsl(228.5, 77.2%, 51.5%)" stroke-width="1.5"></path><path d="M1304.51 639.48L1304.51 639.48" stroke="hsl(228.5, 77.2%, 51.5%)" stroke-width="1.5"></path><path d="M1304.51 639.48L1410.15 645.31" stroke="hsl(228.5, 77.2%, 51.5%)" stroke-width="1.5"></path><path d="M1392.43 -51.59L1392.43 -51.59" stroke="hsl(228.5, 77.2%, 51.5%)" stroke-width="1.5"></path><path d="M1460.48 373.87L1460.48 373.87" stroke="hsl(228.5, 77.2%, 51.5%)" stroke-width="1.5"></path><path d="M1460.48 373.87L1599.9 352.29" stroke="hsl(228.5, 77.2%, 51.5%)" stroke-width="1.5"></path><path d="M1460.48 373.87L1394.51 501.1" stroke="hsl(228.5, 77.2%, 51.5%)" stroke-width="1.5"></path><path d="M1460.48 373.87L1388.62 187.61" stroke="hsl(228.5, 77.2%, 51.5%)" stroke-width="1.5"></path><path d="M1394.51 501.1L1394.51 501.1" stroke="hsl(228.5, 77.2%, 51.5%)" stroke-width="1.5"></path><path d="M1394.51 501.1L1410.15 645.31" stroke="hsl(228.5, 77.2%, 51.5%)" stroke-width="1.5"></path><path d="M1394.51 501.1L1304.51 639.48" stroke="hsl(228.5, 77.2%, 51.5%)" stroke-width="1.5"></path><path d="M1410.15 645.31L1410.15 645.31" stroke="hsl(228.5, 77.2%, 51.5%)" stroke-width="1.5"></path><path d="M1410.15 645.31L1603.07 692.28" stroke="hsl(228.5, 77.2%, 51.5%)" stroke-width="1.5"></path><path d="M1410.15 645.31L1268.8 501.83" stroke="hsl(228.5, 77.2%, 51.5%)" stroke-width="1.5"></path><path d="M1599.9 352.29L1599.9 352.29" stroke="hsl(228.5, 77.2%, 51.5%)" stroke-width="1.5"></path><path d="M1603.07 692.28L1603.07 692.28" stroke="hsl(228.5, 77.2%, 51.5%)" stroke-width="1.5"></path><path d="M1603.07 692.28L1394.51 501.1" stroke="hsl(228.5, 77.2%, 51.5%)" stroke-width="1.5"></path><path d="M1603.07 692.28L1304.51 639.48" stroke="hsl(228.5, 77.2%, 51.5%)" stroke-width="1.5"></path><circle r="25" cx="238.39" cy="705.67" fill="url(&quot;#SvgjsRadialGradient1005&quot;)"></circle><circle r="25" cx="670.1" cy="377.87" fill="url(&quot;#SvgjsRadialGradient1005&quot;)"></circle><circle r="25" cx="704.95" cy="553.11" fill="url(&quot;#SvgjsRadialGradient1005&quot;)"></circle><circle r="25" cx="808.13" cy="559.14" fill="url(&quot;#SvgjsRadialGradient1005&quot;)"></circle><circle r="25" cx="1158.7" cy="499.53" fill="url(&quot;#SvgjsRadialGradient1005&quot;)"></circle><circle r="25" cx="1108.71" cy="668.71" fill="url(&quot;#SvgjsRadialGradient1005&quot;)"></circle><circle r="25" cx="1244.6" cy="-89.3" fill="url(&quot;#SvgjsRadialGradient1005&quot;)"></circle><circle r="25" cx="1298.79" cy="42.32" fill="url(&quot;#SvgjsRadialGradient1005&quot;)"></circle><circle r="25" cx="1449.94" cy="42.97" fill="url(&quot;#SvgjsRadialGradient1005&quot;)"></circle><circle r="25" cx="1388.62" cy="187.61" fill="url(&quot;#SvgjsRadialGradient1005&quot;)"></circle><circle r="25" cx="1582.73" cy="260.17" fill="url(&quot;#SvgjsRadialGradient1005&quot;)"></circle><circle r="25" cx="1586.55" cy="540.97" fill="url(&quot;#SvgjsRadialGradient1005&quot;)"></circle><circle r="5" cx="-83.29" cy="522.94" fill="#8b9ad9"></circle><circle r="5" cx="-91" cy="706.42" fill="#8b9ad9"></circle><circle r="5" cx="98" cy="510.22" fill="#8b9ad9"></circle><circle r="5" cx="49.1" cy="662.52" fill="#8b9ad9"></circle><circle r="5" cx="189.05" cy="562.29" fill="#8b9ad9"></circle><circle r="5" cx="339.69" cy="526.47" fill="#8b9ad9"></circle><circle r="5" cx="357.71" cy="711.57" fill="#8b9ad9"></circle><circle r="5" cx="545.44" cy="411.9" fill="#8b9ad9"></circle><circle r="5" cx="561.29" cy="556.79" fill="#8b9ad9"></circle><circle r="5" cx="528.74" cy="655.17" fill="#8b9ad9"></circle><circle r="5" cx="703.43" cy="670.34" fill="#8b9ad9"></circle><circle r="5" cx="846.32" cy="707.05" fill="#8b9ad9"></circle><circle r="5" cx="956.65" cy="384.25" fill="#8b9ad9"></circle><circle r="5" cx="973.53" cy="506.1" fill="#8b9ad9"></circle><circle r="5" cx="1157.17" cy="91.28" fill="#8b9ad9"></circle><circle r="5" cx="1147.4" cy="235.14" fill="#8b9ad9"></circle><circle r="5" cx="1156.46" cy="338.56" fill="#8b9ad9"></circle><circle r="5" cx="1293.26" cy="204.66" fill="#8b9ad9"></circle><circle r="5" cx="1268.8" cy="501.83" fill="#8b9ad9"></circle><circle r="5" cx="1304.51" cy="639.48" fill="#8b9ad9"></circle><circle r="5" cx="1392.43" cy="-51.59" fill="#8b9ad9"></circle><circle r="5" cx="1460.48" cy="373.87" fill="#8b9ad9"></circle><circle r="5" cx="1394.51" cy="501.1" fill="#8b9ad9"></circle><circle r="5" cx="1410.15" cy="645.31" fill="#8b9ad9"></circle><circle r="5" cx="1599.9" cy="352.29" fill="#8b9ad9"></circle><circle r="5" cx="1603.07" cy="692.28" fill="#8b9ad9"></circle></g><defs><mask id="SvgjsMask1004"><rect width="1440" height="560" fill="#ffffff"></rect></mask><radialGradient id="SvgjsRadialGradient1005"><stop stop-color="#ffffff" offset="0.1"></stop><stop stop-color="#1735b3" offset="0.2"></stop><stop stop-color="rgba(23, 53, 179, 0)" offset="1"></stop></radialGradient></defs></svg>